# File created by Blade
# Date/Time:  Tue Jan 27 19:54:25 2015
# Frame Rate: 120.000 fps
#------------------------------------------------------
:FULLY-SPECIFIED
:DEGREES
3014
root 5.670725 34.543393 -0.454368 34.613189 -29.245299 -42.348121
Spine 5.359100 26.621267 14.447406
Head -23.489064 5.541038 11.056137
LeftShoulder -18.269734 -1.762321 32.179589
LeftArm -13.889015 -48.657170 -65.412428
LeftForeArm -64.632148 -0.000000 138.047730
LeftHand 4.996948 -0.000000 -38.608802
LeftHandThumb1 -26.253704 0.000000 33.147579
RightShoulder -11.787716 -0.734060 -18.748477
RightArm 27.309420 -42.490125 80.893339
RightForeArm -22.904910 -0.000000 33.651304
RightHand 16.638945 -0.000000 8.389509
RightHandThumb1 -24.326973 -0.000000 -32.862282
LeftUpLeg -2.015464 17.156766 24.685153
LeftLeg -7.837770 -0.000000 0.000000
LeftFoot -15.633668 21.847041 -13.184049
LeftToeBase 21.174608 -0.000000 -0.000000
RightUpLeg -14.979524 -54.736326 -38.969234
RightLeg 111.502766 -0.000000 -0.000000
RightFoot 26.808461 -26.445148 24.016883
RightToeBase 11.054043 -0.000000 -0.000000
3015
root 5.656344 34.549110 -0.460350 34.588110 -29.045602 -42.332503
Spine 5.320137 26.612376 14.420277
Head -23.646714 5.443106 11.138092
LeftShoulder -18.211544 -1.844014 32.235922
LeftArm -13.878996 -48.633282 -65.250982
LeftForeArm -64.711859 -0.000000 138.097735
LeftHand 5.029145 -0.000000 -38.528732
LeftHandThumb1 -26.253704 0.000000 33.147579
RightShoulder -11.840897 -0.787454 -18.674922
RightArm 27.301088 -42.486884 80.858189
RightForeArm -22.844376 -0.000000 33.600392
RightHand 16.655191 -0.000000 8.434899
RightHandThumb1 -24.326973 -0.000000 -32.862282
LeftUpLeg -2.078353 17.146179 24.790705
LeftLeg -7.883610 -0.000000 0.000000
LeftFoot -15.553373 21.720090 -13.155218
LeftToeBase 21.248560 -0.000000 -0.000000
RightUpLeg -14.138075 -54.434976 -39.358318
RightLeg 111.827346 -0.000000 -0.000000
RightFoot 27.248795 -26.140174 24.107798
RightToeBase 11.189624 -0.000000 -0.000000
3016
root 5.639109 34.554874 -0.464438 34.553352 -28.826806 -42.306204
Spine 5.233840 26.568995 14.358296
Head -23.755411 5.313757 11.338317
LeftShoulder -18.172657 -1.808587 32.305637
LeftArm -13.677219 -48.619728 -65.287942
LeftForeArm -64.765130 -0.000000 138.162373
LeftHand 5.039595 -0.000000 -38.456179
LeftHandThumb1 -26.253704 0.000000 33.147579
RightShoulder -11.836395 -0.887592 -18.567209
RightArm 27.323464 -42.462919 80.788109
RightForeArm -22.770228 -0.000000 33.543856
RightHand 16.650769 -0.000000 8.448770
RightHandThumb1 -24.326973 -0.000000 -32.862282
LeftUpLeg -2.151564 17.138150 24.897245
LeftLeg -7.909162 -0.000000 0.000000
LeftFoot -15.522185 21.522847 -13.227357
LeftToeBase 21.369318 -0.000000 -0.000000
RightUpLeg -13.191046 -54.110288 -39.803799
RightLeg 112.225790 -0.000000 -0.000000
RightFoot 27.631501 -25.786235 24.189731
RightToeBase 11.402452 -0.000000 -0.000000
3017
root 5.619209 34.561469 -0.467277 34.501327 -28.604154 -42.292060
Spine 5.167651 26.483832 14.308231
Head -23.861900 5.247745 11.580173
LeftShoulder -18.188596 -1.749589 32.388749
LeftArm -13.450096 -48.616585 -65.375363
LeftForeArm -64.926371 -0.000000 138.227826
LeftHand 4.890177 -0.000000 -38.460381
LeftHandThumb1 -26.253704 0.000000 33.147579
RightShoulder -11.795403 -0.926704 -18.466928
RightArm 27.281625 -42.448382 80.758313
RightForeArm -22.611706 -0.000000 33.481080
RightHand 16.620369 -0.000000 7.993636
RightHandThumb1 -24.326973 -0.000000 -32.862282
LeftUpLeg -2.204504 17.148714 25.012692
LeftLeg -7.941361 -0.000000 0.000000
LeftFoot -15.228893 21.389843 -12.849842
LeftToeBase 21.074800 -0.000000 -0.000000
RightUpLeg -12.207141 -53.728311 -40.238236
RightLeg 112.706436 -0.000000 -0.000000
RightFoot 28.069119 -25.385652 24.133709
RightToeBase 11.289142 -0.000000 -0.000000
3018
root 5.595759 34.568882 -0.470902 34.443787 -28.366739 -42.280650
Spine 5.109965 26.449238 14.289209
Head -23.976972 5.034781 11.846441
LeftShoulder -18.131505 -1.783217 32.439021
LeftArm -13.328076 -48.620188 -65.333380
LeftForeArm -65.067596 -0.000000 138.282743
LeftHand 4.875463 0.000000 -38.423998
LeftHandThumb1 -26.253704 0.000000 33.147579
RightShoulder -11.817073 -1.004696 -18.389358
RightArm 27.276873 -42.477019 80.737700
RightForeArm -22.890867 -0.000000 33.422074
RightHand 16.679748 -0.000000 8.937043
RightHandThumb1 -24.326973 -0.000000 -32.862282
LeftUpLeg -2.255360 17.138592 25.156032
LeftLeg -7.950866 -0.000000 0.000000
LeftFoot -15.185796 21.206977 -12.860379
LeftToeBase 21.052917 -0.000000 -0.000000
RightUpLeg -11.163321 -53.289690 -40.676558
RightLeg 113.281473 -0.000000 -0.000000
RightFoot 28.478368 -25.023874 24.175972
RightToeBase 11.340896 -0.000000 -0.000000
3019
root 5.571184 34.578843 -0.472456 34.366320 -28.127150 -42.252232
Spine 5.050262 26.407356 14.242477
Head -24.088169 4.831645 12.111324
LeftShoulder -18.084457 -1.848796 32.492382
LeftArm -13.234429 -48.595013 -65.259170
LeftForeArm -65.211718 -0.000000 138.353167
LeftHand 4.882211 -0.000000 -38.357199
LeftHandThumb1 -26.253704 0.000000 33.147579
RightShoulder -11.823682 -1.137724 -18.270262
RightArm 27.323181 -42.446577 80.677754
RightForeArm -22.762137 -0.000000 33.326397
RightHand 16.563512 -0.000000 8.582302
RightHandThumb1 -24.326973 -0.000000 -32.862282
LeftUpLeg -2.292193 17.163613 25.295843
LeftLeg -7.968947 -0.000000 0.000000
LeftFoot -15.274889 20.880636 -13.229559
LeftToeBase 21.414911 -0.000000 -0.000000
RightUpLeg -10.052229 -52.799292 -41.147780
RightLeg 113.952036 -0.000000 -0.000000
RightFoot 28.751546 -24.861476 24.405836
RightToeBase 11.507158 -0.000000 -0.000000
3020
root 5.540389 34.594927 -0.475833 34.298912 -27.777388 -42.300570
Spine 4.999339 26.272992 14.341050
Head -24.167516 4.754239 12.269505
LeftShoulder -18.076839 -1.881115 32.540909
LeftArm -13.151937 -48.651917 -65.236839
LeftForeArm -65.341729 0.000000 138.424638
LeftHand 4.777136 -0.000000 -38.374574
LeftHandThumb1 -26.253704 0.000000 33.147579
RightShoulder -11.733459 -1.550995 -18.129324
RightArm 27.645502 -42.272954 80.448739
RightForeArm -22.840851 -0.000000 33.276561
RightHand 16.640481 -0.000000 8.793658
RightHandThumb1 -24.326973 -0.000000 -32.862282
LeftUpLeg -2.349163 17.152752 25.566481
LeftLeg -7.960667 -0.000000 0.000000
LeftFoot -15.258776 20.581140 -13.365909
LeftToeBase 21.444781 -0.000000 -0.000000
RightUpLeg -8.797681 -52.273048 -41.530002
RightLeg 114.639750 -0.000000 -0.000000
RightFoot 29.147209 -24.701200 24.460153
RightToeBase 11.623152 -0.000000 -0.000000
3021
root 5.507155 34.609912 -0.476168 34.214438 -27.439499 -42.330487
Spine 4.939038 26.182560 14.409445
Head -24.254642 4.639972 12.443386
LeftShoulder -18.061014 -1.908129 32.606659
LeftArm -12.966020 -48.664122 -65.327753
LeftForeArm -65.407645 -0.000000 138.492599
LeftHand 4.739383 -0.000000 -38.321139
LeftHandThumb1 -26.253704 0.000000 33.147579
RightShoulder -11.759130 -1.695189 -18.028191
RightArm 27.689497 -42.251529 80.402725
RightForeArm -22.740106 0.000000 33.142722
RightHand 16.592657 0.000000 8.406063
RightHandThumb1 -24.326973 -0.000000 -32.862282
LeftUpLeg -2.381747 17.243395 25.802542
LeftLeg -7.982462 -0.000000 0.000000
LeftFoot -15.193739 20.256347 -13.440651
LeftToeBase 21.120240 -0.000000 -0.000000
RightUpLeg -7.463850 -51.698162 -41.976122
RightLeg 115.412804 -0.000000 -0.000000
RightFoot 29.563243 -24.373619 24.271457
RightToeBase 11.430233 -0.000000 -0.000000
